<?xml version="1.0" encoding="utf-8"?>
<!-- Generator: Adobe Illustrator 25.0.0, SVG Export Plug-In . SVG Version: 6.00 Build 0)  -->
<svg version="1.1" id="Layer_1" xmlns="http://www.w3.org/2000/svg" xmlns:xlink="http://www.w3.org/1999/xlink" x="0px" y="0px"
	 viewBox="0 0 481.1 171.4" style="enable-background:new 0 0 481.1 171.4;" xml:space="preserve">
<style type="text/css">
	.st0{fill:#FFFFFF;}
</style>
<g>
	<path class="st0" d="M476.3,77.5c-5.3,4.9-11.2,8.8-18.2,7.5c-1.1-0.2-9.1,14.2-10.2,15.8c-3.6,5.1-7.8,9.3-12.9,12.9
		c-3.1,2.2-6.6,4-10.4,4.3c-10.2,0.8-18-7.7-18.4-17.3c-3.1,3.8-5.9,7.1-8.7,10.5c-7.8,9.6-16.2,5.4-22.5-1.7
		c-2.1-2.4-2.2-6.5-3.2-9.7c-2.1,2.5-4.4,5.7-7.1,8.5c-3.2,3.2-6.7,6.1-10.3,8.9c-3.4,2.6-7.3,2.6-11.4,0.9
		c-10.1-4-13.7-10.7-11.4-21.9c0.9-4.1,1.9-8.2,2.9-12.3c-4,0.5-7.8,1-10.7,1.4c-4.9,7.3-9.1,14.7-14.5,21.3c-3.3,4-8.2,7-12.7,9.9
		c-3.6,2.3-7.8,1.9-11.8-0.1c-10.6-5.2-14.1-10.3-12.6-21.4c2-14.7,8.4-27.8,19.9-38.3c5.5-5,12.1-8,19.9-7.7
		c6.3,0.2,13.8,6.5,14.6,12.3c-0.8,0-1.6,0-2.3-0.1c-6-1.3-11.8-0.3-16.8,2.8c-15.4,9.5-22.4,23.4-23.6,40.2c-0.1,1.7,0.8,4.7,2,5
		c1.6,0.5,4.4-0.3,5.9-1.5c9.5-7.8,15.1-17.8,17.8-29.2c0.2-0.7,0.1-1.5,0.1-2.2c0.1-1.9-2-4.3,0.9-5.6c3.4-1.6,7-2.9,10.7-4
		c0.6-0.2,2,1.2,2.6,2.2c1.3,1.9,2.2,4.1,3.5,6.1c1.8,2.6,4.8,3.3,7.5,2.4c1.5-0.5,2.8-2.5,3.4-4.1c7.5-20.8,15.4-41.3,27-60.4
		c2.2-3.7,5-7.1,7.5-10.6c1.6-2.3,3.8-2.5,6.5-1.6c9.2,3.2,14.1,10.7,11.7,19.5c-5.7,21-15.8,39.8-32.8,54.9c-1,0.9-2.2,2-3.5,2.3
		c-4.8,1.2-6.1,4.8-7,8.6c-1.4,5.6-3.8,11-4,16.7c-0.1,2.4,0,2.9,0.2,4.3c0.4,2.5,3.5,3.6,5.9,2.2c4.2-2.4,7.1-4.8,10.9-7.7
		c8.7-6.6,13.3-11.8,18.9-24.9c3.3-7.6,6.9-15.4,10.4-23.1c0.9-2,2.3-2.6,4.3-2.1c2,0.5,4.1,0.9,5.8,1.9c4.6,2.6,5.5,4.8,3.2,9.4
		c-4.1,8.5-8.5,17.4-12.5,26c-1.4,3.1-2.9,5.6-3.9,8.8c-0.8,2.5-3,6.7-2.5,9.3c1,6.1,10-2.4,11.7-4c3.4-3.2,6.5-6.8,10-10
		c1.1-1.1,1.4-3.1,1.8-4.7c3.4-11.9,8.9-22.8,18.6-31.5c5.5-5,12.1-7.9,20-7.6c6.3,0.2,13.9,6.7,14.4,12.1c-3.6,0-7.2-0.5-10.7,0.1
		c-9,1.4-15.4,6.7-20.6,13.4c-6.8,8.8-11.3,18.6-11.4,29.7c0,1.7,0.8,4.4,2.1,5c1.3,0.6,4.2-0.3,5.5-1.4c9.6-7.8,15.3-17.9,18-29.5
		c0.1-0.6,0-1.2,0.1-1.8c0.2-1.9-0.4-4.8,0.7-5.5c3-2,6.6-3.1,10.1-4.3c0.7-0.2,2,0.7,2.8,1.3c0.6,0.4,0.8,1.2,1.1,1.9
		c4.4,8.6,7.1,9.5,16.4,5.8c0.5-0.2,1-0.2,1.5-0.3L476.3,77.5L476.3,77.5L476.3,77.5z M352.4,72.1c12-7.3,30.2-44.5,27.5-55.8
		C369.4,34.2,360.3,52.4,352.4,72.1"/>
	<path class="st0" d="M160.9,83.2c4.9-5.6,9.6-11.4,14.6-16.8c4-4.3,8.4-8.3,12.8-12.2c2.9-2.5,6.6-3.3,10.5-2.3
		c5,1.3,6.5,4.6,4,8.9c-4.1,7-8.4,13.9-12.3,21.1c-1.8,3.2-2.7,6.8-4,10.2l-0.4,0.1c-9.9-1.7-11.9-4.6-9-13.5
		c0.6-1.9,1.4-3.8,1.6-6.1c-0.9,0.8-1.9,1.4-2.7,2.3c-5.2,5.2-10.5,10.5-15.6,15.8c-5.6,5.9-8.1,13.2-11,20.4
		c-2.5,6.3-2.9,6.4-9.2,3.2c-3.3-1.7-3.9-3.8-2.9-6.9c2.5-7.6,4.9-15.3,7.3-22.9c-3.7,0.3-7.1,0.7-9.5,0.9
		c-4.9,7.4-9,14.8-14.4,21.2c-3.7,4.3-7.8,7.1-12.8,10.3c-3,1.9-8,1.7-11.3,0.1c-7.4-3.7-13.8-8-13.3-17.9c-1.6,1.2-2.5,2.2-3.6,2.8
		c-5.9,3.2-11.9,6.4-17.9,9.5c-3.5,1.8-7.2,3.3-10.6,5.2c-2.7,1.6-4.8,1.3-6.8-0.9c-2.3-2.6-3.2-6.9-1.5-8.4
		c9-7.8,12.2-18.4,16.2-28.7c1.1-2.9,1.8-6.1,2.8-9.5c-0.9,0.4-1.3,0.5-1.5,0.8c-11.5,15.8-24.4,30.7-33,48.1
		c-5.1,10.3-9,21.2-13.6,31.8c-0.9,2.1-1.1,5-4.7,5c-3.1,0-8.2-2.6-8.8-5.1c-0.3-1.5,0.3-3.3,0.9-4.9c7.8-20.1,15.8-40.1,23.4-60.3
		c3.5-9.3,6-18.8,9.1-28.2c0.3-0.8,1.2-2.2,1.6-2.1c3.6,0.7,7.5,1,10.6,2.6c3.1,1.6,1.9,5.1,0.8,7.7c-4.2,9.9-8.6,19.8-12.9,29.7
		c-0.3,0.8-0.6,1.5-0.4,2.6c0.7-1,1.5-2,2.2-3.1C44.2,80.3,53,67.4,61.9,54.6c3.8-5.5,4.9-5.7,11.1-3.4c5.5,2.1,8.5,6.3,6.9,11.1
		c-2.7,8.2-5.8,16.4-9.2,24.4c-2,4.8-5,9.3-8.2,15.1c7.2-3.1,13.6-5.8,19.8-8.6c0.9-0.4,1.4-1.9,1.7-2.9
		c3.3-12.8,8.9-24.4,19.2-33.6c5.6-5,12.1-7.9,20-7.7c6.3,0.2,13.8,6.6,14.5,12.5c-1.3-0.2-2.6-0.5-3.8-0.7
		c-5.5-0.6-10.8,0.3-15.3,3.1c-15.3,9.5-22.4,23.5-23.6,40.3c-0.1,1.6,0.4,4,1.9,4.9c1.7,1,4.3-0.1,5.7-1.2
		c9.6-7.8,15.3-17.9,18-29.5c0.1-0.6,0.1-1.2,0.1-1.8c0.2-1.9-0.4-4.8,0.7-5.5c3-2,6.6-3.2,10.1-4.3c0.7-0.2,2.4,0.7,3,1.6
		c1.2,1.6,1.8,3.5,2.8,5.2c1.4,2.5,3.5,4.1,6.8,4.2c2.1,0.1,3.2-0.6,3.9-2.6c2.2-6.5,4.8-12.8,7-19.3c0.9-2.6,2.6-3.3,5.3-2.9
		c8.3,1.2,11.1,5.9,7.8,13.2c-2.6,5.7-5.2,11.3-7.9,16.9C160.5,83,160.7,83.1,160.9,83.2"/>
	<path class="st0" d="M261.1,58.4c6.4-11.3,12.5-22.5,19-33.6c3.5-6,2-10.9-5-13.5c-2.7-1-4.9-1-6.4,2c-4.2,8.3-8.8,16.5-13,24.9
		c-2.5,5.1-4.5,10.5-6.8,15.9c-0.7-0.2-1.2-0.3-1.7-0.5c-7.2-2-12.6,2.1-11.9,9.2c0.1,0.7,1,1.6,1.7,2c5.8,3.1,5.9,3.1,3.4,8.8
		c-0.4,0.9-0.8,1.8-1.2,2.7c-3.2,7.1-6.8,14-11.6,20c-2.4,3-5.1,5.7-8,8.3c-2.4,2.1-6,5.3-9.5,4.1c-4.9-1.6-1.4-8.7-0.7-10.4
		c5.7-15.2,11.7-30.4,17.7-45.5c0.4-1,2.4-1.9,3.7-2.2c3.8-0.7,7.8-0.5,11.5-1.5c4.6-1.3,7.2-5.3,6.7-9h-15.9
		c0.9-1.8,1.6-3.4,2.3-4.9c0.8-1.7,1.7-3.3,2.3-5c1.8-4.7,0.7-8.2-3.9-10.5c-2.6-1.4-5.7-2-8.6-2.9c-2.7,6.6-5.5,12.5-7.5,18.7
		c-1.2,3.6-2.9,4.9-7.1,4.7c-7.9-0.3-10.1,1.7-11.7,9.3c4.1,0.3,8.2,0.6,12.6,1c-0.5,1.4-0.8,2.7-1.3,3.9
		c-3.2,8.9-6.8,17.6-9.5,26.6c-2.3,7.6-4,15.3-5.4,23.1c-1.2,6.4,3.9,9.1,9,11.7c4.9,2.6,9.2,2,13.1-1.5c3.4-3,6.5-6.3,10.2-9.9
		c-0.5,1.5-0.7,2.4-1,3.3c-4.5,12.9-7.9,25.9-8.4,39.5c-0.4,10.3,4.2,17.1,14.4,21c13.1,5,15.2,4.8,19.7-8.2
		c3.1-8.8,4.6-18.2,5.9-27.4c2.2-15.4,2.7-30.8,0.6-46.2c-0.7-5.4-1.5-10.7-2.3-15.8c5-0.4,9.9-0.4,14.5-1.2c4.8-0.9,8-4.1,10.2-8.3
		C274.2,62.9,267.9,62.2,261.1,58.4 M250.6,120.1c-1.6,10.5-4.2,21-6.7,31.4c-0.6,2.6-1.8,5.3-3.3,7.7c-2,3.1-6.3,2.1-7.4-1.3
		c-1.4-4.2-1.1-8.1-0.3-12.2c2.5-13.2,5.7-26.4,9.2-39.4c1.9-7.2,5-14.1,7.5-21.2c0.4,0.1,0.7,0.2,1.1,0.3
		C252.8,96.8,252.4,108.5,250.6,120.1"/>
	<path class="st0" d="M408.2,18.4c0.9,0.2,2.4,0.4,3.9,0.8c6.8,2,8.5,5.9,4.9,11.7c-2.9,4.6-6.7,8.3-12.7,9.3
		c-2.6,0.4-4.5,0.3-3.9-3.3c0.7-4.3,0.7-8.7,1-13C401.8,19.7,403.3,18.4,408.2,18.4"/>
	<path class="st0" d="M462.8,34.9v9.4h-3.2v-9.4h-3.3v-2.7h9.8v2.7H462.8z M478.2,44.3v-7.4l-2.8,6.2h-2.2l-2.8-6.2v7.4h-2.9V32.2
		h3.6l3.2,6.9l3.2-6.9h3.6v12.1H478.2z"/>
</g>
</svg>
